<svg version="1.1" id="zs-logo" xmlns="http://www.w3.org/2000/svg" xmlns:xlink="http://www.w3.org/1999/xlink" x="0px" y="0px" viewBox="0 0 400.2 75" style="enable-background:new 0 0 400.2 75;" xml:space="preserve">
<style type="text/css">
    .zs-logo-st0{fill:#F9BD15;}
    .zs-logo-st1{fill:#0063B5;} 
</style>
    <g id="zs-logo_x5F__x5F_s2">
      <path class="zs-logo-st0" d="M51.7,74.1C47.4,71.9,32.5,63.9,17.1,51c-5.9-5-10.1-9.8-13-14.2c0,0-8.3-12-1.4-17.9s14.4-2.2,14.4-2.2
		c9.8,4.6,16,11.5,19.8,16.6c3.9,5.1,2.5,7.3,1.2,8.3c-1.1,0.8-2.7-0.9-2.7-0.9c-3.6-4.1-13.4-14.5-12.1-4.7
		c2.3,17.4,27.8,31.6,27.8,31.6c3.7,2.1,3.1,4.8,2.3,6.2C53,74.7,51.7,74.1,51.7,74.1z M59.9,74.5c4.4-2.3,23.4-12.9,41.1-32.3
		c4.6-5,8.1-10.4,10.7-15.6c0,0,6.1-9.5,1.4-19.5c-5.7-12.3-19.7-4.7-19.7-4.7C81.5,9,79,15.3,74.6,22c-4.4,6.9-2.3,9.5-0.5,10.5
		c0,0,1.3,0.7,3.2-1.7c4.2-5.3,13.9-18.6,13.5-7.2C90.1,45.5,60.2,66,60.2,66c-4.3,3.5-3,6.9-2.1,8.3C58.1,74.4,58.6,75.2,59.9,74.5
		z"></path>
    </g>
    <g id="zs-logo_x5F__x5F_s1">
      <path class="zs-logo-st1" d="M54.7,26.2c0.1,0.4,0.1,0.8,0.1,1.2l0,1.2c0,1.6,0,3.2-0.1,4.8v0c0,0,0,0,0,0c0,0.1,0,0.3,0,0.4c0,0,0,0,0,0.1
		c-0.1,0.6-0.6,1.2-1.1,1.5c-0.4,0.2-0.8,0.3-1.2,0.3l-1.2,0c-1.6,0-3.2,0.1-4.8,0.1c-0.9-0.1-1.7-0.7-2-1.5
		c-0.2-0.4-0.2-0.9-0.2-1.3l0-1.2c0-1.6,0-3.2-0.1-4.8c0-1,0.6-1.9,1.4-2.3c0.4-0.2,0.9-0.3,1.3-0.3l1.2,0c1.6,0,3.2,0.1,4.8,0.2
		C53.7,24.7,54.4,25.4,54.7,26.2z M52.8,37.9c-1.6-0.1-3.2-0.1-4.8-0.2l-1.2,0c-0.4,0-0.9,0.1-1.3,0.3c-0.8,0.4-1.4,1.3-1.4,2.3
		c0,1.6,0,3.2,0.1,4.8l0,1.2c0,0.4,0,0.9,0.2,1.3c0.3,0.8,1.1,1.5,2,1.5c1.6,0,3.2-0.1,4.8-0.1l1.2,0c0.4,0,0.8-0.1,1.2-0.3
		c0.6-0.3,1-0.9,1.1-1.5c0,0,0,0,0-0.1c0-0.1,0-0.3,0-0.4c0,0,0,0,0,0v0c0-1.6,0-3.2,0.1-4.8l0-1.2c0-0.4,0-0.8-0.1-1.2
		C54.4,38.7,53.7,38,52.8,37.9z M66,24.6c-1.6-0.1-3.2-0.1-4.8-0.2l-1.2,0c-0.4,0-0.9,0.1-1.3,0.3c-0.8,0.4-1.4,1.3-1.4,2.3
		c0,1.6,0,3.2,0.1,4.8l0,1.2c0,0.4,0,0.9,0.2,1.3c0.3,0.8,1.1,1.5,2,1.5c1.6,0,3.2-0.1,4.8-0.1l1.2,0c0.4,0,0.8-0.1,1.2-0.3
		c0.6-0.3,1-0.9,1.1-1.5c0,0,0,0,0-0.1c0-0.1,0-0.3,0-0.4c0-1.6,0-3.2,0.1-4.8l0-1.2c0-0.4,0-0.8-0.1-1.2
		C67.6,25.4,66.9,24.7,66,24.6z M67.8,47.1c0-0.1,0-0.2,0-0.4c0,0,0,0,0,0C67.9,46.9,67.9,47,67.8,47.1z M66,37.9
		c-1.6-0.1-3.2-0.1-4.8-0.2l-1.2,0c-0.4,0-0.9,0.1-1.3,0.3c-0.8,0.4-1.4,1.3-1.4,2.3c0,1.6,0,3.2,0.1,4.8l0,1.2c0,0.4,0,0.9,0.2,1.3
		c0.3,0.8,1.1,1.5,2,1.5c1.6,0,3.2-0.1,4.8-0.1l1.2,0c0.4,0,0.8-0.1,1.2-0.3c0.6-0.3,1-0.9,1.1-1.5c0,0,0,0,0-0.1c0-0.1,0-0.3,0-0.4
		c0,0,0,0,0,0v0c0-1.6,0-3.2,0.1-4.8l0-1.2c0-0.4,0-0.8-0.1-1.2C67.6,38.7,66.9,38,66,37.9z M74.5,12c-3.8-3.2-13.3-15.4-20-11
		c-3.5,2.3-10.5,6.1-16.8,9.4V6.2h1.8c0.9,0,1.5-0.7,1.5-1.6s-0.7-1.6-1.5-1.6h-8.4c-0.9,0-1.5,0.7-1.5,1.6s0.7,1.6,1.5,1.6h1.8v6.7
		c-3.5,1.8-6.3,3.2-7.2,3.6c-2.4,1.1-3.5,1.9-2,1.7c0,0,19.2-3.9,28.7-8.5C61.7,5,66.8,14,76.4,15.2C78.7,15.3,78.3,15.2,74.5,12z"></path>
    </g>
    <g id="zs-logo_x5F__x5F_g">
      <path class="zs-logo-st0" d="M121.8,62.2c-0.8-0.3-1.5-0.7-2.1-1.2c-0.6-0.6-1.1-1.2-1.5-1.9c-0.4-0.7-0.5-1.5-0.5-2.4c0-1.1,0.2-2.1,0.6-3
		c0.4-0.9,0.9-1.7,1.6-2.3c0.7-0.6,1.4-1.1,2.3-1.4c0.9-0.3,1.8-0.5,2.7-0.5c0.8,0,1.5,0.1,2,0.4l0.2-1.1l5-22.9l8.2-1.1l-6,28.5
		c-0.3,1.2-0.5,2-0.7,2.6c0.9,0.8,2,1.2,3.2,1.2c1.1,0,2.1-0.3,3-1c1-0.7,1.8-1.6,2.7-2.8c1.5-2.3,2.7-5.4,3.7-9.3
		c0.8-3.7,1.3-7.4,1.3-11.3c0-3.6-0.7-6.3-2.2-8.1c-1.4-1.6-3.3-2.4-5.8-2.4c-2.1,0-4,0.3-5.7,0.9c-1.8,0.6-3.3,1.5-4.6,2.7
		c-1.3,1.2-2.4,2.6-3.1,4.3c-0.7,1.7-1.1,3.6-1.1,5.6c0,1.2,0.1,2.1,0.4,2.8c0.1,0.2,0.2,0.4,0.3,0.6c0.1,0.1,0.1,0.3,0.1,0.4
		c-1.9,0-3.4-0.4-4.4-1.2c-1-0.8-1.5-2.1-1.5-3.9c0-1.2,0.2-2.5,0.7-3.7s1.2-2.4,2.1-3.5c0.9-1.1,2-2.1,3.2-3s2.7-1.7,4.2-2.4
		c3.2-1.4,6.6-2.1,10.3-2.1c5,0,8.8,1.6,11.4,4.8c1.1,1.4,2,3.1,2.5,5c0.5,1.9,0.8,4,0.8,6.2c0,2.1-0.2,4.2-0.6,6.3
		c-0.4,2.1-0.9,4.2-1.6,6.2c-0.7,2-1.5,3.8-2.4,5.5c-0.9,1.7-2,3.2-3.1,4.4c-1.2,1.3-2.4,2.3-3.7,3c-1.3,0.7-2.6,1-3.9,1
		c-1.3,0-2.5-0.3-3.7-0.8c-1.4-0.6-2.6-1.5-3.8-2.7c-1,1.6-2.3,2.7-3.8,3.4c-1.2,0.6-2.6,0.9-4.2,0.9
		C123.3,62.6,122.5,62.5,121.8,62.2z M124.7,56.8c0.7-0.7,1.1-1.9,1.5-3.4l0.3-1.4c-0.6-0.4-1.1-0.5-1.6-0.5c-0.5,0-1,0.1-1.5,0.3
		c-0.5,0.2-0.9,0.5-1.3,0.9c-0.4,0.4-0.7,0.9-1,1.4c-0.2,0.6-0.4,1.1-0.4,1.7c0,0.5,0.2,1,0.6,1.3c0.4,0.3,0.9,0.5,1.6,0.5
		C123.6,57.7,124.2,57.4,124.7,56.8z M159,59.3c-1.7-1.5-2.5-3.7-2.5-6.8c0-1.1,0.1-2.4,0.3-3.8c0.2-1.4,0.6-2.8,1.1-4.2
		c1.1-3.4,2.7-6,4.8-8.1c2.5-2.5,5.5-3.7,8.9-3.7c4.7,0,7.1,3,7.1,8.9v0.1c0.1,0,0.2,0.1,0.3,0.1h0.3c1.2,0,2.7-0.3,4.3-1
		c1.5-0.6,2.9-1.4,4.2-2.3l0.5,1.5c-1.1,1.1-2.5,2.1-4.2,2.9c-1.7,0.8-3.6,1.4-5.6,1.7c-0.2,2.5-0.7,4.8-1.5,6.9
		c-0.8,2.1-1.7,3.8-2.9,5.3c-1.2,1.4-2.5,2.6-4,3.3c-1.5,0.8-3.1,1.2-4.8,1.2C162.6,61.3,160.5,60.7,159,59.3z M169.6,55.5
		c0.7-0.6,1.3-1.4,1.9-2.5c0.6-1,1.1-2.3,1.5-3.7c0.4-1.4,0.8-2.9,1-4.5c-0.5-0.1-0.9-0.4-1.1-0.8c-0.2-0.4-0.3-0.9-0.3-1.5
		c0-0.8,0.2-1.4,0.5-1.9c0.3-0.5,0.7-0.9,1.3-1.1c-0.1-1.2-0.3-2-0.6-2.5c-0.2-0.3-0.4-0.4-0.6-0.5c-0.2-0.1-0.6-0.2-0.9-0.2
		c-1.2,0-2.5,0.9-3.6,2.8c-1.1,1.7-2,3.8-2.7,6.3c-0.7,2.4-1,4.6-1,6.5c0,0.9,0,1.7,0.1,2.3c0.1,0.6,0.3,1,0.5,1.4
		c0.2,0.3,0.5,0.6,0.8,0.7c0.3,0.1,0.8,0.2,1.3,0.2C168.2,56.3,168.9,56.1,169.6,55.5z M184.5,59.1c-1.6-1.6-2.3-3.9-2.3-7.1
		c0-2.1,0.3-4.2,1-6.2s1.6-3.9,2.9-5.5c1.3-1.7,3-3,4.8-4c1.9-1,4-1.4,6.3-1.4c0.3,0,0.4,0,0.5,0c0.1,0,0.2,0,0.4,0
		c-0.6-0.8-1.4-1.6-2.3-2.5c-0.9-0.8-1.7-1.6-2.3-2.3c-0.6-0.7-1.1-1.4-1.5-2.1c-0.4-0.8-0.6-1.6-0.6-2.5c0-1.4,0.5-2.4,1.4-3.1
		c1-0.7,2.5-1,4.6-1h8.4h2.5c0.6,0,1.2-0.1,1.6-0.2c0.4-0.2,0.7-0.4,0.9-0.8c0.2-0.3,0.4-0.9,0.6-1.7h2.4c-0.5,2.2-0.9,3.9-1.4,5.2
		c-0.5,1.3-1.1,2.3-1.8,3c-0.7,0.7-1.5,1.2-2.5,1.5c-1,0.3-2.2,0.4-3.7,0.4h-5.3c-0.2,0-0.4,0-0.5,0.1c-0.1,0.1-0.2,0.3-0.2,0.6
		c0,0.2,0.1,0.4,0.4,0.8l0.4,0.5c0.2,0.2,0.5,0.6,0.9,1.2c0.4,0.6,0.8,1.1,1.2,1.7c1.1,1.7,2,3.6,2.5,5.7c0.3,1.1,0.4,2.4,0.4,3.7
		c0,1.4-0.1,2.7-0.4,4.2c-0.3,1.4-0.7,2.8-1.2,4.2c-0.5,1.4-1.2,2.7-1.9,3.8c-0.8,1.2-1.6,2.2-2.6,3.1c-2.1,2-4.5,2.9-7.2,2.9
		C188.2,61.3,186,60.6,184.5,59.1z M197.1,53.2c0.9-1.6,1.6-3.8,2.1-6.3c0.2-1,0.3-2,0.4-2.9c0.1-0.9,0.1-1.6,0.1-2.1
		c0-1.4-0.2-2.4-0.5-2.9c-0.3-0.5-0.8-0.7-1.6-0.7c-0.8,0-1.6,0.3-2.3,0.8s-1.4,1.3-1.9,2.2c-1,1.6-1.8,3.6-2.4,6.1
		c-0.3,1-0.4,1.9-0.6,2.8c-0.1,0.9-0.2,1.6-0.2,2.1c0,1.6,0.2,2.7,0.7,3.3c0.2,0.3,0.5,0.5,0.8,0.7c0.3,0.1,0.8,0.2,1.4,0.2
		C194.6,56.3,195.9,55.3,197.1,53.2z M212.2,31.3h7.9l-0.9,4.2c1.9-1.6,4-2.4,6.4-2.4c2.1,0,3.7,0.6,4.8,1.9
		c1.3,1.5,1.9,3.8,1.9,6.9c0,3-0.4,5.8-1.1,8.4c-1,3.3-2.3,5.9-4.1,7.8c-2.2,2.3-5,3.4-8.3,3.4c-1.3,0-2.3-0.2-3.2-0.6
		c-0.6-0.3-1.1-0.7-1.5-1.4L211.3,73l-8.3,2L212.2,31.3z M221.7,53.9c1-1.4,1.8-3.4,2.4-6c0.5-2.1,0.7-4.1,0.7-6.2
		c0-1.8-0.3-3.1-1-3.9c-0.4-0.5-1-0.7-1.8-0.7c-0.7,0-1.3,0.2-2,0.7c-0.7,0.5-1.3,1.1-1.8,2l-3.3,15.5c0.1,0.4,0.4,0.7,0.7,0.9
		c0.3,0.2,0.8,0.4,1.4,0.4C218.9,56.6,220.5,55.7,221.7,53.9z M237.6,59.4c-1.6-1.5-2.3-3.7-2.3-6.8c0-1.1,0.1-2.4,0.3-3.8
		c0.2-1.4,0.6-2.8,1-4.2c0.5-1.6,1.1-3,1.9-4.4c0.8-1.4,1.7-2.6,2.7-3.7c2.4-2.5,5.4-3.7,8.9-3.7c2.2,0,3.9,0.5,4.9,1.6
		c0.8,0.8,1.2,2.1,1.2,3.7c0,1.6-0.3,3-1,4.4c-0.7,1.4-1.6,2.6-2.8,3.7c-1.2,1-2.6,1.9-4.1,2.5c-1.5,0.6-3.1,1-4.7,1.1
		c-0.1,0.9-0.1,1.7-0.1,2.2c0,1.8,0.3,3.1,1,3.7c0.6,0.6,1.6,0.9,3,0.9c2,0,3.8-0.5,5.5-1.6c0.7-0.5,1.4-1,2-1.6
		c0.6-0.6,1.4-1.4,2.3-2.4h1.9c-1.7,3-3.7,5.3-6,7.1c-2.8,2.1-5.8,3.2-9.2,3.2C241.2,61.4,239.1,60.8,237.6,59.4z M247,46.3
		c1-0.5,1.8-1.2,2.6-2.1c0.8-0.9,1.3-1.8,1.8-2.9c0.4-1.1,0.6-2.2,0.6-3.3c0-0.7-0.1-1.3-0.3-1.7c-0.2-0.4-0.6-0.6-1.1-0.6
		c-0.7,0-1.3,0.3-2,1c-0.7,0.7-1.3,1.5-2,2.7c-0.6,1.1-1.1,2.3-1.6,3.6c-0.5,1.4-0.8,2.7-1.1,4.1C245,47.2,246,46.9,247,46.3z"></path>
    </g>
    <g id="zs-logo_x5F__x5F_s">
      <path class="zs-logo-st1" d="M271.2,61.3c-1.5-0.5-2.7-1.3-3.7-2.3c-1-1.1-1.8-2.5-2.2-4.2c-0.5-1.7-0.7-3.9-0.7-6.3c0-2.8,0.3-5.7,1-8.8
		c0.8-3.5,1.8-6.7,3.2-9.5c1.6-3.2,3.6-5.8,6-7.6c2.7-2.1,5.7-3.1,9.1-3.1c2.7,0,4.9,0.6,6.5,1.7c1.8,1.3,2.7,3.2,2.7,5.7
		c0,1.6-0.3,2.8-0.9,3.7c-0.7,1-1.7,1.5-3,1.5c-0.6,0-1.1-0.1-1.6-0.3c-0.5-0.2-1-0.6-1.5-1.1c0.3-0.2,0.6-0.4,0.9-0.8
		c0.3-0.4,0.6-0.8,0.8-1.2c0.5-1,0.8-2.1,0.8-3.1c0-1-0.3-1.8-0.8-2.4c-0.6-0.7-1.5-1-2.6-1c-1,0-2,0.4-2.9,1.1
		c-1,0.7-1.9,1.8-2.8,3.1c-0.8,1.3-1.6,2.8-2.3,4.5c-0.7,1.7-1.3,3.5-1.8,5.5c-0.5,2-0.9,3.9-1.2,6c-0.3,2-0.4,4-0.4,5.8
		c0,1.4,0.1,2.6,0.3,3.6c0.2,1,0.5,1.9,1,2.6c1,1.6,2.8,2.4,5.3,2.4c2.2,0,4.2-0.5,6-1.5c1.8-1,3.4-2.3,4.7-4.1l1.3,0.6
		c-0.7,1.8-1.7,3.3-2.9,4.6c-1.2,1.3-2.6,2.4-4.2,3.3c-1.4,0.8-2.9,1.4-4.4,1.8c-1.5,0.4-2.9,0.6-4.3,0.6
		C274.5,62,272.7,61.8,271.2,61.3z M293.9,59.4c-1.6-1.5-2.3-3.7-2.3-6.8c0-1.1,0.1-2.4,0.3-3.8c0.2-1.4,0.6-2.8,1-4.2
		c0.5-1.6,1.1-3,1.9-4.4c0.8-1.4,1.7-2.6,2.7-3.7c2.4-2.5,5.4-3.7,8.9-3.7c2.2,0,3.9,0.5,4.9,1.6c0.8,0.8,1.2,2.1,1.2,3.7
		c0,1.6-0.3,3-1,4.4c-0.7,1.4-1.6,2.6-2.8,3.7c-1.2,1-2.6,1.9-4.1,2.5c-1.5,0.6-3.1,1-4.7,1.1c-0.1,0.9-0.1,1.7-0.1,2.2
		c0,1.8,0.3,3.1,1,3.7c0.6,0.6,1.6,0.9,3,0.9c2,0,3.8-0.5,5.5-1.6c0.7-0.5,1.4-1,2-1.6c0.6-0.6,1.4-1.4,2.3-2.4h1.9
		c-1.7,3-3.7,5.3-6,7.1c-2.8,2.1-5.8,3.2-9.2,3.2C297.4,61.4,295.3,60.8,293.9,59.4z M303.2,46.3c1-0.5,1.8-1.2,2.6-2.1
		c0.8-0.9,1.3-1.8,1.8-2.9c0.4-1.1,0.6-2.2,0.6-3.3c0-0.7-0.1-1.3-0.3-1.7c-0.2-0.4-0.6-0.6-1.1-0.6c-0.7,0-1.3,0.3-2,1
		c-0.7,0.7-1.3,1.5-2,2.7c-0.6,1.1-1.1,2.3-1.6,3.6c-0.5,1.4-0.8,2.7-1.1,4.1C301.3,47.2,302.3,46.9,303.2,46.3z M319,31.3h7.9
		l-0.9,4.2c1.9-1.6,4-2.4,6.4-2.4c2.1,0,3.7,0.6,4.8,1.9c1.3,1.5,1.9,3.8,1.9,6.9c0,3-0.4,5.8-1.1,8.4c-1,3.3-2.3,5.9-4.1,7.8
		c-2.2,2.3-5,3.4-8.3,3.4c-1.3,0-2.3-0.2-3.2-0.6c-0.6-0.3-1.1-0.7-1.5-1.4L318.1,73l-8.3,2L319,31.3z M328.5,53.9
		c1-1.4,1.8-3.4,2.4-6c0.5-2.1,0.7-4.1,0.7-6.2c0-1.8-0.3-3.1-1-3.9c-0.4-0.5-1-0.7-1.8-0.7c-0.7,0-1.3,0.2-2,0.7
		c-0.7,0.5-1.3,1.1-1.8,2l-3.3,15.5c0.1,0.4,0.4,0.7,0.7,0.9c0.3,0.2,0.8,0.4,1.4,0.4C325.7,56.6,327.2,55.7,328.5,53.9z M348.1,69
		c0.5-1.3,1.1-2.3,1.8-3c0.7-0.7,1.5-1.2,2.4-1.5c1-0.3,2.2-0.4,3.7-0.4h4.3c1,0,1.8,0,2.3-0.1c0.5-0.1,1-0.2,1.4-0.5
		c0.5-0.3,0.9-0.8,1.3-1.5c0.3-0.7,0.6-1.6,0.9-2.9c-0.9,0.9-1.7,1.6-2.5,1.9c-0.3,0.1-0.7,0.2-1.1,0.3c-0.4,0.1-0.8,0.1-1.3,0.1
		c-1.3,0-2.4-0.4-3.3-1.3c-0.9-0.9-1.4-2.2-1.6-3.9c-1.3,2-2.7,3.5-4.3,4.3c-1.1,0.6-2.4,0.9-3.9,0.9c-1.8,0-3.2-0.5-4.2-1.6
		c-1.1-1.2-1.7-2.8-1.7-5.1c0-1,0.1-2.3,0.4-3.6l3.7-17.8h7.9l-4,18.9c-0.1,0.6-0.2,1.1-0.2,1.6c0,1.5,0.5,2.3,1.6,2.3
		c1,0,1.9-0.5,2.7-1.4c0.6-0.8,1.2-2,1.7-3.5l3.7-17.8h7.9l-4,18.9c-0.2,0.5-0.2,1.1-0.2,1.8c0,0.8,0.2,1.3,0.5,1.6
		c0.4,0.3,0.9,0.5,1.7,0.5h2.8c-0.4,4.4-1.2,7.9-2.5,10.4c-1.1,2.1-2.4,3.5-4,4.3c-1.1,0.5-2.4,0.8-4,0.8h-3.8h-2.4
		c-0.7,0-1.2,0.1-1.6,0.2c-0.4,0.2-0.7,0.4-0.9,0.8c-0.2,0.4-0.4,0.9-0.6,1.7h-2.4C347.1,72,347.6,70.3,348.1,69z M375.3,59.4
		c-1.6-1.5-2.3-3.7-2.3-6.8c0-1.1,0.1-2.4,0.3-3.8c0.2-1.4,0.6-2.8,1-4.2c0.5-1.6,1.1-3,1.9-4.4c0.8-1.4,1.7-2.6,2.7-3.7
		c2.4-2.5,5.4-3.7,8.9-3.7c2.2,0,3.9,0.5,4.9,1.6c0.8,0.8,1.2,2.1,1.2,3.7c0,1.6-0.3,3-1,4.4c-0.7,1.4-1.6,2.6-2.8,3.7
		c-1.2,1-2.6,1.9-4.1,2.5c-1.5,0.6-3.1,1-4.7,1.1c-0.1,0.9-0.1,1.7-0.1,2.2c0,1.8,0.3,3.1,1,3.7c0.6,0.6,1.6,0.9,3,0.9
		c2,0,3.8-0.5,5.5-1.6c0.7-0.5,1.4-1,2-1.6c0.6-0.6,1.4-1.4,2.3-2.4h1.9c-1.7,3-3.7,5.3-6,7.1c-2.8,2.1-5.8,3.2-9.2,3.2
		C378.9,61.4,376.8,60.8,375.3,59.4z M384.7,46.3c1-0.5,1.8-1.2,2.6-2.1c0.8-0.9,1.3-1.8,1.8-2.9c0.4-1.1,0.6-2.2,0.6-3.3
		c0-0.7-0.1-1.3-0.3-1.7c-0.2-0.4-0.6-0.6-1.1-0.6c-0.7,0-1.3,0.3-2,1c-0.7,0.7-1.3,1.5-2,2.7c-0.6,1.1-1.1,2.3-1.6,3.6
		c-0.5,1.4-0.8,2.7-1.1,4.1C382.7,47.2,383.7,46.9,384.7,46.3z"></path>
    </g>
</svg>
